<?xml version="1.0"?>
<svg xmlns:rdf="http://www.w3.org/1999/02/22-rdf-syntax-ns#" xmlns="http://www.w3.org/2000/svg" xmlns:cc="http://creativecommons.org/ns#" xmlns:xlink="http://www.w3.org/1999/xlink" xmlns:dc="http://purl.org/dc/elements/1.1/" xmlns:svg="http://www.w3.org/2000/svg" id="svg2" viewBox="0 0 542.62 589.38" version="1.0">
  <defs id="defs4">
    <linearGradient id="linearGradient2387">
      <stop id="stop2389" stop-color="#fff" offset="0"/>
      <stop id="stop2391" stop-color="#0ff" offset="1"/>
    </linearGradient>
    <linearGradient id="linearGradient3292" x1="1034.4" gradientUnits="userSpaceOnUse" y1="-65.074" gradientTransform="matrix(.95275 0 0 1 -544.77 148.04)" x2="1003.9" y2="239.86">
      <stop id="stop3247" stop-color="#fff" offset="0"/>
      <stop id="stop3249" stop-color="#ff4c00" offset="1"/>
    </linearGradient>
    <linearGradient id="linearGradient3294" x1="154.29" xlink:href="#linearGradient2387" gradientUnits="userSpaceOnUse" x2="154.29" y1="140.93" y2="855.22"/>
    <linearGradient id="linearGradient3298" x1="154.29" xlink:href="#linearGradient2387" gradientUnits="userSpaceOnUse" x2="154.29" y1="140.93" y2="806.49"/>
    <radialGradient id="radialGradient3300" gradientUnits="userSpaceOnUse" cy="324.6" cx="154.29" gradientTransform="matrix(.73879 -.67255 .27077 .25996 -47.592 342.47)" r="310.5">
      <stop id="stop3237" stop-color="#00c3c1" offset="0"/>
      <stop id="stop3239" stop-color="#00c3c1" stop-opacity="0" offset="1"/>
    </radialGradient>
  </defs>
  <g id="layer1" transform="translate(-66.325 -202.3)">
    <g id="g3273" transform="matrix(.70248 0 0 .71179 100.45 143.24)">
      <path id="path3205" stroke-linejoin="round" d="m-48.133 176.03v567.89l515.55-105.52v-461.25l-515.55-1.12z" stroke-opacity=".82392" fill-rule="evenodd" stroke="#e3332b" stroke-width=".88852px" fill="#ff2a2a"/>
      <path id="path3207" stroke-linejoin="round" d="m467.39 177.13l253.83-68.91v618.84l-253.83-88.64v-461.29z" stroke-opacity=".82392" fill-rule="evenodd" stroke="#e3332b" stroke-width=".83575px" fill="#ff2a2a"/>
      <path id="path3211" stroke-linejoin="round" d="m100.03 83.41v827.17l623.38-183.54v-618.81l-623.38-24.82z" stroke-opacity=".82392" fill-rule="evenodd" stroke="#e3332b" stroke-width=".86729px" fill="url(#linearGradient3292)"/>
      <path id="path3213" stroke-linejoin="round" d="m-48.133 176.03l148.17-92.609v827.15l-148.17-166.65-0.003-567.89z" stroke-opacity=".82392" fill-rule="evenodd" stroke="#d5241c" stroke-width=".88852px" fill="#d40000"/>
      <path id="path2383" d="m464.29 159.51a310 307.14 0 1 1 -620 0 310 307.14 0 1 1 620 0z" fill-rule="evenodd" transform="matrix(.92446 0 0 1.0001 279.25 302.33)" stroke="#00c3c1" stroke-width="1px" fill="url(#linearGradient3294)"/>
      <path id="path2395" d="m464.29 159.51a310 307.14 0 1 1 -620 0 310 307.14 0 1 1 620 0z" fill-rule="evenodd" transform="matrix(.88797 0 0 -.96059 284.88 615.06)" stroke="#00c3c1" stroke-width="1px" fill="url(#linearGradient3294)"/>
      <path id="path2399" d="m464.29 159.51a310 307.14 0 1 1 -620 0 310 307.14 0 1 1 620 0z" fill-rule="evenodd" transform="matrix(.83940 0 0 .89789 292.37 318.62)" stroke="url(#radialGradient3300)" stroke-width="1px" fill="url(#linearGradient3298)"/>
      <path id="path3251" stroke="#000" stroke-width=".59071" fill="#241c1c" d="m443.25 493.26l-36.62 21.61 15.83-41.24c46.66-40.92 106.71-128.85 180.22-192.23-51.78 83.57-127.44 157.64-159.43 211.86z"/>
      <path id="path3255" stroke="#000" stroke-width=".59972" fill="#d40000" d="m471.14 481.02l-0.56 5.96-30.41 11.87c-29.87-28.43-101.04-35.19-141.65-85.3 63.75-0.74 131.16 70.12 172.62 67.47z"/>
      <text id="text3257" font-size="40px" xml:space="preserve" y="265.7059" x="380.06992" font-family="Bitstream Vera Sans" fill="#000000">
        <tspan id="tspan3259" y="265.7059" x="380.06992" font-size="64px" font-family="Frazzle">12</tspan>
      </text>
      <text id="text3261" font-size="40px" xml:space="preserve" y="699.62201" x="418.43674" font-family="Bitstream Vera Sans" fill="#000000">
        <tspan id="tspan3263" y="699.62201" x="418.43674" font-size="64px" font-family="Frazzle">6</tspan>
      </text>
      <text id="text3265" font-size="40px" xml:space="preserve" y="507.21732" x="191.58977" font-family="Bitstream Vera Sans" fill="#000000">
        <tspan id="tspan3267" y="507.21732" x="191.58977" font-size="64px" font-family="Frazzle">9</tspan>
      </text>
      <text id="text3269" font-size="40px" xml:space="preserve" y="474.07172" x="609.22467" font-family="Bitstream Vera Sans" fill="#000000">
        <tspan id="tspan3271" y="474.07172" x="609.22467" font-size="64px" font-family="Frazzle">3</tspan>
      </text>
      <path id="path2526" stroke="#000" stroke-width=".59972" fill="#f55" d="m456.8 449.12l15.01 31.21-32.07 13.52c-29.87-28.44-96.59-35.19-142.76-80.92 63.75-0.74 118.36 38.85 159.82 36.19z"/>
    </g>
  </g>
  <metadata>
    <rdf:RDF>
      <cc:Work>
        <dc:format>image/svg+xml</dc:format>
        <dc:type rdf:resource="http://purl.org/dc/dcmitype/StillImage"/>
        <cc:license rdf:resource="http://creativecommons.org/licenses/publicdomain/"/>
        <dc:publisher>
          <cc:Agent rdf:about="http://openclipart.org/">
            <dc:title>Openclipart</dc:title>
          </cc:Agent>
        </dc:publisher>
        <dc:title>Analog alarm clock</dc:title>
        <dc:date>2008-11-16T17:26:42</dc:date>
        <dc:description>A simple red alarm clock made with inkscape. Enjoy !</dc:description>
        <dc:source>http://openclipart.org/detail/20196/analog-alarm-clock-by-airw</dc:source>
        <dc:creator>
          <cc:Agent>
            <dc:title>AirW</dc:title>
          </cc:Agent>
        </dc:creator>
        <dc:subject>
          <rdf:Bag>
            <rdf:li>clip art</rdf:li>
            <rdf:li>clipart</rdf:li>
            <rdf:li>image</rdf:li>
            <rdf:li>media</rdf:li>
            <rdf:li>png</rdf:li>
            <rdf:li>public domain</rdf:li>
            <rdf:li>svg</rdf:li>
            <rdf:li>time clock tool</rdf:li>
          </rdf:Bag>
        </dc:subject>
      </cc:Work>
      <cc:License rdf:about="http://creativecommons.org/licenses/publicdomain/">
        <cc:permits rdf:resource="http://creativecommons.org/ns#Reproduction"/>
        <cc:permits rdf:resource="http://creativecommons.org/ns#Distribution"/>
        <cc:permits rdf:resource="http://creativecommons.org/ns#DerivativeWorks"/>
      </cc:License>
    </rdf:RDF>
  </metadata>
</svg>
