<?xml version="1.0" encoding="UTF-8" standalone="no"?>
<!-- Generator: Gravit.io -->
<svg xmlns="http://www.w3.org/2000/svg" xmlns:xlink="http://www.w3.org/1999/xlink" style="isolation:isolate" viewBox="0 0 562.638 386.798" width="562.638" height="386.798"><defs><clipPath id="_clipPath_xPUM5sa6kbCHevmNRcDM8UB7ZwYf0fE5"><rect width="562.638" height="386.798"/></clipPath></defs><g clip-path="url(#_clipPath_xPUM5sa6kbCHevmNRcDM8UB7ZwYf0fE5)"><rect width="562.638" height="386.798" style="fill:rgb(0,0,0)" fill-opacity="0"/><path d=" M 42.916 146.756 C 50.318 111.892 60.556 76.819 119.978 38.565 C 311.389 -46.246 487.443 30.471 516.497 63.606 C 592.868 118.671 516.497 226.033 450.088 200.23 C 428.367 169.585 422.002 159.07 414.047 101.653 C 341.135 88.441 268.708 87.68 207.21 103.244 C 208.317 123.928 202.852 142.952 187.84 159.416 C 112.3 180.03 69.341 170.899 42.847 146.756 L 42.916 146.756 Z " fill-rule="evenodd" fill="rgb(32,30,30)"/><path d=" M 58.204 325.646 C 58.896 318.175 63.738 307.868 75.014 294.863 C 140.731 243.119 213.297 149.662 207.279 103.244 C 274.933 92.591 343.902 93.283 414.116 101.653 C 418.336 144.335 433.416 177.402 454.1 205.695 C 474.715 233.988 538.288 291.127 547.696 299.29 C 557.104 307.453 560.078 316.861 560.701 329.105 L 562.638 376.975 C 562.223 383.824 556.896 386.314 549.287 386.798 L 68.995 386.452 C 63.738 386.591 57.166 381.887 57.858 373.447 L 58.204 325.577 L 58.204 325.646 Z " fill-rule="evenodd" fill="rgb(32,30,30)"/><path d=" M 88.296 301.504 C 80.825 300.397 81.586 297.353 85.736 294.517 C 146.335 246.509 195.381 190.476 214.542 113.69 C 215.303 109.955 217.725 107.948 221.806 107.672 C 273.827 104.697 329.583 104.075 390.873 107.049 C 399.589 107.188 409.966 109.401 411.833 114.105 C 425.945 198.708 474.576 243.188 523.138 290.09 C 528.396 295.14 528.326 299.636 521.893 299.636 C 376 303.925 231.629 303.994 88.226 301.573 L 88.296 301.504 Z  M 214.542 172.767 C 216.549 167.855 223.743 166.818 222.152 174.704 C 199.185 224.096 219.316 281.097 302.12 292.995 C 355.593 294.932 392.879 264.495 397.445 211.021 C 399.105 205.971 403.532 205.141 405.4 211.021 C 395.992 282.342 352.411 302.887 302.12 299.705 C 235.226 293.825 183.967 243.603 214.542 172.836 L 214.542 172.767 Z " fill-rule="evenodd" fill="rgb(255,41,41)"/><path d=" M 191.438 134.028 C 196.003 141.776 186.872 151.668 178.432 153.397 C 108.564 168.339 73.561 159.762 52.808 141.637 L 59.449 115.973 C 95.421 125.796 135.751 126.211 181.891 114.036 C 186.111 113.483 187.633 106.772 182.237 107.672 C 135.612 116.388 96.804 115.835 64.568 107.672 C 81.447 57.934 135.543 26.32 223.466 11.24 C 315.194 -0.174 446.422 9.511 507.366 60.701 C 519.956 73.36 527.496 83.253 530.817 90.862 C 533.653 95.082 532.062 99.025 527.981 97.849 C 477.689 91.069 444.485 94.805 422.971 105.804 C 416.953 107.464 416.607 102.899 417.921 99.44 C 420.965 85.189 426.36 70.87 436.944 56.62 C 441.164 52.192 437.152 42.369 426.776 51.846 C 417.437 60.078 410.312 71.7 405.193 86.711 C 329.444 76.957 263.381 78.825 205.342 90.17 C 193.582 69.832 178.502 60.009 170.477 55.305 C 162.868 50.117 157.472 55.72 163.836 59.733 C 180.508 71.908 192.683 84.567 194.896 98.402 C 195.311 101.792 193.859 104.836 187.633 106.634 C 194.412 109.055 196.695 115.004 196.487 120.608 C 196.142 124.067 193.029 127.249 185.073 129.186 C 133.675 141.084 93.553 142.052 65.813 131.123 C 59.311 128.079 54.468 135.204 61.04 139.7 C 101.232 149.247 144.467 148.14 191.438 133.959 L 191.438 134.028 Z " fill-rule="evenodd" fill="rgb(255,41,41)"/><path d=" M 421.726 120.4 C 421.518 115.212 425.184 112.86 429.335 112.168 C 454.377 104.351 487.167 103.383 525.767 107.395 C 534.345 108.364 535.382 108.364 536.904 112.168 L 541.677 130.569 C 542.093 134.581 540.64 138.317 534.414 136.933 C 492.493 129.324 458.666 130.5 434.454 142.329 C 431.272 145.511 425.6 147.379 424.008 140.392 L 421.795 120.4 L 421.726 120.4 Z " fill-rule="evenodd" fill="rgb(255,41,41)"/><path d=" M 450.918 163.22 C 453.547 163.22 455.691 161.353 455.691 159.07 C 455.691 156.787 453.547 154.919 450.918 154.919 C 448.289 154.919 446.145 156.787 446.145 159.07 C 446.145 161.353 448.289 163.22 450.918 163.22 L 450.918 163.22 L 450.918 163.22 L 450.918 163.22 L 450.918 163.22 L 450.918 163.22 Z  M 475.268 149.247 C 478.935 149.247 480.111 151.322 480.111 153.812 C 480.111 156.372 477.136 158.378 473.47 158.378 C 469.803 158.378 466.829 156.303 466.829 153.812 C 466.829 151.253 471.671 149.247 475.337 149.247 L 475.268 149.247 L 475.268 149.247 L 475.268 149.247 L 475.268 149.247 L 475.268 149.247 Z  M 455.622 176.571 C 459.15 176.571 461.986 174.773 461.986 172.628 C 461.986 170.415 459.15 168.685 455.622 168.685 C 452.094 168.685 449.258 170.484 449.258 172.628 C 449.258 174.842 452.094 176.571 455.622 176.571 L 455.622 176.571 L 455.622 176.571 L 455.622 176.571 Z  M 476.583 174.358 C 480.111 174.358 482.947 172.905 482.947 171.176 C 482.947 169.446 480.111 167.994 476.583 167.994 C 473.055 167.994 470.218 169.446 470.218 171.176 C 470.218 172.905 473.055 174.358 476.583 174.358 L 476.583 174.358 L 476.583 174.358 Z  M 495.952 172.421 C 499.065 172.421 501.694 170.691 501.694 168.616 C 501.694 166.541 499.134 164.811 495.952 164.811 C 492.839 164.811 490.21 166.541 490.21 168.616 C 490.21 170.691 492.77 172.421 495.952 172.421 L 495.952 172.421 Z  M 432.517 159.139 C 429.958 153.121 432.171 149.316 438.259 149.593 C 467.244 141.499 497.335 141.499 528.05 146.134 C 534.206 147.171 535.244 152.083 532.2 154.988 C 515.045 192.344 477.274 202.167 454.031 195.249 C 444.485 187.017 438.812 173.251 432.586 159.07 L 432.517 159.139 L 432.517 159.139 L 432.517 159.139 L 432.517 159.139 L 432.517 159.139 L 432.517 159.139 Z  M 476.928 192.067 C 480.456 192.067 483.293 190.199 483.293 187.916 C 483.293 185.634 480.456 183.766 476.928 183.766 C 473.4 183.766 470.564 185.634 470.564 187.916 C 470.564 190.199 473.4 192.067 476.928 192.067 Z " fill-rule="evenodd" fill="rgb(255,41,41)"/><path d=" M 71.209 318.037 C 71.278 315.339 72.593 312.295 76.605 312.295 C 231.145 314.855 386.377 314.302 542.577 310.082 C 550.048 309.39 554.06 312.157 554.337 318.66 L 556.274 370.334 C 556.135 375.177 553.922 377.736 549.633 377.944 C 391.565 374.139 234.604 372.064 80.755 375.108 C 72.247 374.831 69.203 374.969 68.719 369.712 C 67.266 352.902 68.096 335.677 71.278 318.037 L 71.209 318.037 Z " fill-rule="evenodd" fill="rgb(255,41,41)"/><path d=" M 278.669 155.542 C 282.335 155.542 285.31 153.467 285.31 150.976 C 285.31 148.417 282.335 146.411 278.669 146.411 C 275.003 146.411 272.028 148.486 272.028 150.976 C 272.028 153.536 275.003 155.542 278.669 155.542 L 278.669 155.542 L 278.669 155.542 L 278.669 155.542 L 278.669 155.542 L 278.669 155.542 L 278.669 155.542 L 278.669 155.542 L 278.669 155.542 L 278.669 155.542 L 278.669 155.542 L 278.669 155.542 L 278.669 155.542 L 278.669 155.542 L 278.669 155.542 L 278.669 155.542 L 278.669 155.542 L 278.669 155.542 L 278.669 155.542 L 278.669 155.542 L 278.669 155.542 L 278.669 155.542 L 278.669 155.542 L 278.669 155.542 L 278.669 155.542 L 278.669 155.542 L 278.669 155.542 L 278.669 155.542 L 278.669 155.542 L 278.669 155.542 L 278.669 155.542 Z  M 306.685 151.46 C 310.075 151.46 312.842 148.97 312.842 145.926 C 312.842 142.883 310.075 140.392 306.685 140.392 C 303.296 140.392 300.529 142.883 300.529 145.926 C 300.529 148.97 303.296 151.46 306.685 151.46 L 306.685 151.46 L 306.685 151.46 L 306.685 151.46 L 306.685 151.46 L 306.685 151.46 L 306.685 151.46 L 306.685 151.46 L 306.685 151.46 L 306.685 151.46 L 306.685 151.46 L 306.685 151.46 L 306.685 151.46 L 306.685 151.46 L 306.685 151.46 L 306.685 151.46 L 306.685 151.46 L 306.685 151.46 L 306.685 151.46 L 306.685 151.46 L 306.685 151.46 L 306.685 151.46 L 306.685 151.46 L 306.685 151.46 L 306.685 151.46 L 306.685 151.46 L 306.685 151.46 L 306.685 151.46 L 306.685 151.46 L 306.685 151.46 Z  M 333.526 154.988 C 337.054 154.988 339.89 152.429 339.89 149.247 C 339.89 146.134 337.054 143.505 333.526 143.505 C 329.998 143.505 327.162 146.065 327.162 149.247 C 327.162 152.36 329.998 154.988 333.526 154.988 L 333.526 154.988 L 333.526 154.988 L 333.526 154.988 L 333.526 154.988 L 333.526 154.988 L 333.526 154.988 L 333.526 154.988 L 333.526 154.988 L 333.526 154.988 L 333.526 154.988 L 333.526 154.988 L 333.526 154.988 L 333.526 154.988 L 333.526 154.988 L 333.526 154.988 L 333.526 154.988 L 333.526 154.988 L 333.526 154.988 L 333.526 154.988 L 333.526 154.988 L 333.526 154.988 L 333.526 154.988 L 333.526 154.988 L 333.526 154.988 L 333.526 154.988 L 333.526 154.988 L 333.526 154.988 L 333.526 154.988 Z  M 359.052 168.27 C 362.649 168.27 365.554 164.95 365.554 160.799 C 365.554 156.718 362.649 153.328 359.052 153.328 C 355.455 153.328 352.549 156.649 352.549 160.799 C 352.549 164.881 355.455 168.27 359.052 168.27 L 359.052 168.27 L 359.052 168.27 L 359.052 168.27 L 359.052 168.27 L 359.052 168.27 L 359.052 168.27 L 359.052 168.27 L 359.052 168.27 L 359.052 168.27 L 359.052 168.27 L 359.052 168.27 L 359.052 168.27 L 359.052 168.27 L 359.052 168.27 L 359.052 168.27 L 359.052 168.27 L 359.052 168.27 L 359.052 168.27 L 359.052 168.27 L 359.052 168.27 L 359.052 168.27 L 359.052 168.27 L 359.052 168.27 L 359.052 168.27 L 359.052 168.27 L 359.052 168.27 L 359.052 168.27 Z  M 375.378 188.262 C 378.49 188.262 381.119 186.118 381.119 183.489 C 381.119 180.86 378.56 178.716 375.378 178.716 C 372.265 178.716 369.636 180.86 369.636 183.489 C 369.636 186.118 372.195 188.262 375.378 188.262 L 375.378 188.262 L 375.378 188.262 L 375.378 188.262 L 375.378 188.262 L 375.378 188.262 L 375.378 188.262 L 375.378 188.262 L 375.378 188.262 L 375.378 188.262 L 375.378 188.262 L 375.378 188.262 L 375.378 188.262 L 375.378 188.262 L 375.378 188.262 L 375.378 188.262 L 375.378 188.262 L 375.378 188.262 L 375.378 188.262 L 375.378 188.262 L 375.378 188.262 L 375.378 188.262 L 375.378 188.262 L 375.378 188.262 L 375.378 188.262 L 375.378 188.262 L 375.378 188.262 Z  M 382.987 216.555 C 386.1 216.555 388.729 213.927 388.729 210.675 C 388.729 207.424 386.169 204.795 382.987 204.795 C 379.874 204.795 377.245 207.424 377.245 210.675 C 377.245 213.927 379.805 216.555 382.987 216.555 L 382.987 216.555 L 382.987 216.555 L 382.987 216.555 L 382.987 216.555 L 382.987 216.555 L 382.987 216.555 L 382.987 216.555 L 382.987 216.555 L 382.987 216.555 L 382.987 216.555 L 382.987 216.555 L 382.987 216.555 L 382.987 216.555 L 382.987 216.555 L 382.987 216.555 L 382.987 216.555 L 382.987 216.555 L 382.987 216.555 L 382.987 216.555 L 382.987 216.555 L 382.987 216.555 L 382.987 216.555 L 382.987 216.555 L 382.987 216.555 L 382.987 216.555 Z  M 375.862 243.465 C 380.012 243.465 383.333 240.698 383.333 237.377 C 383.333 233.988 379.943 231.29 375.862 231.29 C 371.711 231.29 368.391 234.057 368.391 237.377 C 368.391 240.767 371.78 243.465 375.862 243.465 L 375.862 243.465 L 375.862 243.465 L 375.862 243.465 L 375.862 243.465 L 375.862 243.465 L 375.862 243.465 L 375.862 243.465 L 375.862 243.465 L 375.862 243.465 L 375.862 243.465 L 375.862 243.465 L 375.862 243.465 L 375.862 243.465 L 375.862 243.465 L 375.862 243.465 L 375.862 243.465 L 375.862 243.465 L 375.862 243.465 L 375.862 243.465 L 375.862 243.465 L 375.862 243.465 L 375.862 243.465 L 375.862 243.465 L 375.862 243.465 Z  M 362.58 264.771 C 366.661 264.771 370.051 262.143 370.051 258.891 C 370.051 255.64 366.73 253.011 362.58 253.011 C 358.498 253.011 355.109 255.64 355.109 258.891 C 355.109 262.143 358.429 264.771 362.58 264.771 L 362.58 264.771 L 362.58 264.771 L 362.58 264.771 L 362.58 264.771 L 362.58 264.771 L 362.58 264.771 L 362.58 264.771 L 362.58 264.771 L 362.58 264.771 L 362.58 264.771 L 362.58 264.771 L 362.58 264.771 L 362.58 264.771 L 362.58 264.771 L 362.58 264.771 L 362.58 264.771 L 362.58 264.771 L 362.58 264.771 L 362.58 264.771 L 362.58 264.771 L 362.58 264.771 L 362.58 264.771 L 362.58 264.771 Z  M 340.167 276.808 C 343.695 276.808 346.531 274.248 346.531 271.066 C 346.531 267.953 343.695 265.325 340.167 265.325 C 336.639 265.325 333.803 267.884 333.803 271.066 C 333.803 274.179 336.639 276.808 340.167 276.808 L 340.167 276.808 L 340.167 276.808 L 340.167 276.808 L 340.167 276.808 L 340.167 276.808 L 340.167 276.808 L 340.167 276.808 L 340.167 276.808 L 340.167 276.808 L 340.167 276.808 L 340.167 276.808 L 340.167 276.808 L 340.167 276.808 L 340.167 276.808 L 340.167 276.808 L 340.167 276.808 L 340.167 276.808 L 340.167 276.808 L 340.167 276.808 L 340.167 276.808 L 340.167 276.808 L 340.167 276.808 Z  M 309.729 283.795 C 312.842 283.795 315.471 281.374 315.471 278.399 C 315.471 275.424 312.911 273.003 309.729 273.003 C 306.616 273.003 303.988 275.424 303.988 278.399 C 303.988 281.374 306.547 283.795 309.729 283.795 L 309.729 283.795 L 309.729 283.795 L 309.729 283.795 L 309.729 283.795 L 309.729 283.795 L 309.729 283.795 L 309.729 283.795 L 309.729 283.795 L 309.729 283.795 L 309.729 283.795 L 309.729 283.795 L 309.729 283.795 L 309.729 283.795 L 309.729 283.795 L 309.729 283.795 L 309.729 283.795 L 309.729 283.795 L 309.729 283.795 L 309.729 283.795 L 309.729 283.795 L 309.729 283.795 Z  M 275.003 279.644 C 278.392 279.644 281.159 276.946 281.159 273.626 C 281.159 270.305 278.392 267.607 275.003 267.607 C 271.613 267.607 268.846 270.305 268.846 273.626 C 268.846 276.946 271.613 279.644 275.003 279.644 L 275.003 279.644 L 275.003 279.644 L 275.003 279.644 L 275.003 279.644 L 275.003 279.644 L 275.003 279.644 L 275.003 279.644 L 275.003 279.644 L 275.003 279.644 L 275.003 279.644 L 275.003 279.644 L 275.003 279.644 L 275.003 279.644 L 275.003 279.644 L 275.003 279.644 L 275.003 279.644 L 275.003 279.644 L 275.003 279.644 L 275.003 279.644 L 275.003 279.644 Z  M 255.633 271.412 C 259.23 271.412 262.136 269.268 262.136 266.639 C 262.136 264.01 259.23 261.866 255.633 261.866 C 252.036 261.866 249.131 264.01 249.131 266.639 C 249.131 269.268 252.036 271.412 255.633 271.412 L 255.633 271.412 L 255.633 271.412 L 255.633 271.412 L 255.633 271.412 L 255.633 271.412 L 255.633 271.412 L 255.633 271.412 L 255.633 271.412 L 255.633 271.412 L 255.633 271.412 L 255.633 271.412 L 255.633 271.412 L 255.633 271.412 L 255.633 271.412 L 255.633 271.412 L 255.633 271.412 L 255.633 271.412 L 255.633 271.412 L 255.633 271.412 Z  M 237.232 255.225 C 241.66 255.225 245.326 252.804 245.326 249.829 C 245.326 246.855 241.66 244.433 237.232 244.433 C 232.805 244.433 229.139 246.855 229.139 249.829 C 229.139 252.804 232.805 255.225 237.232 255.225 L 237.232 255.225 L 237.232 255.225 L 237.232 255.225 L 237.232 255.225 L 237.232 255.225 L 237.232 255.225 L 237.232 255.225 L 237.232 255.225 L 237.232 255.225 L 237.232 255.225 L 237.232 255.225 L 237.232 255.225 L 237.232 255.225 L 237.232 255.225 L 237.232 255.225 L 237.232 255.225 L 237.232 255.225 L 237.232 255.225 Z  M 225.68 231.428 C 229 231.428 231.698 228.661 231.698 225.272 C 231.698 221.882 229 219.115 225.68 219.115 C 222.359 219.115 219.662 221.882 219.662 225.272 C 219.662 228.661 222.359 231.428 225.68 231.428 L 225.68 231.428 L 225.68 231.428 L 225.68 231.428 L 225.68 231.428 L 225.68 231.428 L 225.68 231.428 L 225.68 231.428 L 225.68 231.428 L 225.68 231.428 L 225.68 231.428 L 225.68 231.428 L 225.68 231.428 L 225.68 231.428 L 225.68 231.428 L 225.68 231.428 L 225.68 231.428 L 225.68 231.428 Z  M 228.239 206.663 C 231.906 206.663 234.88 203.827 234.88 200.299 C 234.88 196.771 231.906 193.935 228.239 193.935 C 224.573 193.935 221.598 196.771 221.598 200.299 C 221.598 203.827 224.573 206.663 228.239 206.663 L 228.239 206.663 L 228.239 206.663 L 228.239 206.663 L 228.239 206.663 L 228.239 206.663 L 228.239 206.663 L 228.239 206.663 L 228.239 206.663 L 228.239 206.663 L 228.239 206.663 L 228.239 206.663 L 228.239 206.663 L 228.239 206.663 L 228.239 206.663 L 228.239 206.663 L 228.239 206.663 Z  M 234.396 185.149 C 237.44 185.149 239.93 183.005 239.93 180.376 C 239.93 177.747 237.44 175.603 234.396 175.603 C 231.352 175.603 228.862 177.747 228.862 180.376 C 228.862 183.005 231.352 185.149 234.396 185.149 L 234.396 185.149 L 234.396 185.149 L 234.396 185.149 L 234.396 185.149 L 234.396 185.149 L 234.396 185.149 L 234.396 185.149 L 234.396 185.149 L 234.396 185.149 L 234.396 185.149 L 234.396 185.149 L 234.396 185.149 L 234.396 185.149 L 234.396 185.149 L 234.396 185.149 Z  M 253.489 169.585 C 257.086 169.585 260.061 166.818 260.061 163.428 C 260.061 160.038 257.086 157.271 253.489 157.271 C 249.892 157.271 246.917 160.038 246.917 163.428 C 246.917 166.818 249.892 169.585 253.489 169.585 L 253.489 169.585 L 253.489 169.585 L 253.489 169.585 L 253.489 169.585 L 253.489 169.585 L 253.489 169.585 L 253.489 169.585 L 253.489 169.585 L 253.489 169.585 L 253.489 169.585 L 253.489 169.585 L 253.489 169.585 L 253.489 169.585 L 253.489 169.585 Z  M 269.469 190.822 C 271.89 190.822 273.896 188.746 273.896 186.256 C 273.896 183.697 271.89 181.69 269.469 181.69 C 267.047 181.69 265.041 183.766 265.041 186.256 C 265.041 188.816 267.047 190.822 269.469 190.822 L 269.469 190.822 L 269.469 190.822 L 269.469 190.822 L 269.469 190.822 L 269.469 190.822 L 269.469 190.822 L 269.469 190.822 L 269.469 190.822 L 269.469 190.822 L 269.469 190.822 L 269.469 190.822 L 269.469 190.822 Z  M 288.769 178.439 C 291.743 178.439 294.164 176.295 294.164 173.666 C 294.164 171.037 291.743 168.893 288.769 168.893 C 285.794 168.893 283.373 171.037 283.373 173.666 C 283.373 176.295 285.794 178.439 288.769 178.439 L 288.769 178.439 L 288.769 178.439 L 288.769 178.439 L 288.769 178.439 L 288.769 178.439 L 288.769 178.439 L 288.769 178.439 L 288.769 178.439 L 288.769 178.439 L 288.769 178.439 L 288.769 178.439 Z  M 315.263 177.194 C 318.515 177.194 321.143 175.05 321.143 172.421 C 321.143 169.792 318.515 167.648 315.263 167.648 C 312.012 167.648 309.383 169.792 309.383 172.421 C 309.383 175.05 312.012 177.194 315.263 177.194 L 315.263 177.194 L 315.263 177.194 L 315.263 177.194 L 315.263 177.194 L 315.263 177.194 L 315.263 177.194 L 315.263 177.194 L 315.263 177.194 L 315.263 177.194 L 315.263 177.194 Z  M 341.481 184.458 C 344.594 184.458 347.223 182.036 347.223 179.062 C 347.223 176.087 344.663 173.666 341.481 173.666 C 338.368 173.666 335.739 176.087 335.739 179.062 C 335.739 182.036 338.299 184.458 341.481 184.458 L 341.481 184.458 L 341.481 184.458 L 341.481 184.458 L 341.481 184.458 L 341.481 184.458 L 341.481 184.458 L 341.481 184.458 L 341.481 184.458 L 341.481 184.458 Z  M 353.034 200.645 C 356.285 200.645 358.914 198.362 358.914 195.595 C 358.914 192.828 356.285 190.545 353.034 190.545 C 349.782 190.545 347.154 192.828 347.154 195.595 C 347.154 198.362 349.782 200.645 353.034 200.645 L 353.034 200.645 L 353.034 200.645 L 353.034 200.645 L 353.034 200.645 L 353.034 200.645 L 353.034 200.645 L 353.034 200.645 L 353.034 200.645 Z  M 354.002 221.121 C 356.631 221.121 358.775 218.838 358.775 216.071 C 358.775 213.304 356.631 211.021 354.002 211.021 C 351.373 211.021 349.229 213.304 349.229 216.071 C 349.229 218.838 351.373 221.121 354.002 221.121 L 354.002 221.121 L 354.002 221.121 L 354.002 221.121 L 354.002 221.121 L 354.002 221.121 L 354.002 221.121 L 354.002 221.121 Z  M 341.481 242.704 C 344.387 242.704 346.739 240.49 346.739 237.792 C 346.739 235.095 344.387 232.881 341.481 232.881 C 338.576 232.881 336.224 235.095 336.224 237.792 C 336.224 240.49 338.576 242.704 341.481 242.704 L 341.481 242.704 L 341.481 242.704 L 341.481 242.704 L 341.481 242.704 L 341.481 242.704 L 341.481 242.704 Z  M 255.495 209.569 C 258.124 209.569 260.268 207.286 260.268 204.519 C 260.268 201.752 258.124 199.469 255.495 199.469 C 252.866 199.469 250.722 201.752 250.722 204.519 C 250.722 207.286 252.866 209.569 255.495 209.569 L 255.495 209.569 L 255.495 209.569 L 255.495 209.569 L 255.495 209.569 L 255.495 209.569 Z  M 259.784 230.806 C 263.035 230.806 265.664 228.385 265.664 225.41 C 265.664 222.435 263.035 220.014 259.784 220.014 C 256.533 220.014 253.904 222.435 253.904 225.41 C 253.904 228.385 256.533 230.806 259.784 230.806 L 259.784 230.806 L 259.784 230.806 L 259.784 230.806 L 259.784 230.806 Z  M 273.55 243.188 C 276.663 243.188 279.292 240.975 279.292 238.277 C 279.292 235.579 276.732 233.365 273.55 233.365 C 270.437 233.365 267.808 235.579 267.808 238.277 C 267.808 240.975 270.368 243.188 273.55 243.188 L 273.55 243.188 L 273.55 243.188 L 273.55 243.188 Z  M 297.07 250.452 C 300.183 250.452 302.812 248.169 302.812 245.402 C 302.812 242.635 300.252 240.352 297.07 240.352 C 293.957 240.352 291.328 242.635 291.328 245.402 C 291.328 248.169 293.888 250.452 297.07 250.452 L 297.07 250.452 L 297.07 250.452 Z  M 314.987 252.043 C 317.892 252.043 320.244 249.898 320.244 247.27 C 320.244 244.641 317.892 242.496 314.987 242.496 C 312.081 242.496 309.729 244.641 309.729 247.27 C 309.729 249.898 312.081 252.043 314.987 252.043 L 314.987 252.043 Z  M 309.107 162.598 C 267.532 164.604 249.546 185.564 246.294 210.468 C 245.188 244.641 273.342 264.08 310.352 259.03 C 343.902 255.087 363.756 236.34 364.586 212.059 C 362.857 183.282 344.179 162.459 309.037 162.598 L 309.107 162.598 L 309.107 162.598 L 309.107 162.598 L 309.107 162.598 L 309.107 162.598 L 309.107 162.598 L 309.107 162.598 L 309.107 162.598 L 309.107 162.598 L 309.107 162.598 L 309.107 162.598 L 309.107 162.598 L 309.107 162.598 L 309.107 162.598 L 309.107 162.598 Z  M 311.044 154.366 L 311.044 154.366 C 343.418 155.265 374.271 183.143 374.478 210.537 C 372.195 251.559 333.872 271.135 300.875 268.299 C 252.728 261.658 237.025 239.937 239.654 209.638 C 241.245 179.338 264.211 155.334 311.044 154.435 L 311.044 154.366 L 311.044 154.366 L 311.044 154.366 L 311.044 154.366 L 311.044 154.366 L 311.044 154.366 L 311.044 154.366 L 311.044 154.366 L 311.044 154.366 L 311.044 154.366 L 311.044 154.366 L 311.044 154.366 L 311.044 154.366 L 311.044 154.366 L 311.044 154.366 Z  M 213.366 211.436 C 219.8 160.73 250.376 132.644 310.075 131.814 C 356.077 133.751 385.892 157.479 396.338 207.632 C 401.042 263.803 359.398 294.102 302.12 292.995 C 232.874 281.789 212.19 244.779 213.366 211.436 L 213.366 211.436 L 213.366 211.436 L 213.366 211.436 L 213.366 211.436 L 213.366 211.436 L 213.366 211.436 L 213.366 211.436 L 213.366 211.436 L 213.366 211.436 L 213.366 211.436 L 213.366 211.436 L 213.366 211.436 L 213.366 211.436 L 213.366 211.436 L 213.366 211.436 L 213.366 211.436 L 213.366 211.436 L 213.366 211.436 L 213.366 211.436 L 213.366 211.436 L 213.366 211.436 L 213.366 211.436 L 213.366 211.436 L 213.366 211.436 L 213.366 211.436 L 213.366 211.436 L 213.366 211.436 L 213.366 211.436 L 213.366 211.436 L 213.366 211.436 Z  M 272.927 207.632 L 272.927 207.632 C 273.135 228.869 283.235 233.849 306.824 236.271 C 329.099 238 340.167 230.944 341.481 212.751 C 339.89 196.148 329.79 187.57 313.88 184.527 C 289.668 182.936 276.04 190.683 272.927 207.701 L 272.927 207.632 L 272.927 207.632 Z  M 266.909 207.286 C 270.506 188.193 286.555 179.546 315.056 181.275 C 333.803 184.734 345.701 194.35 347.499 212.958 C 345.978 233.434 328.614 240.767 302.396 238.899 C 274.726 236.201 267.739 229.215 266.909 207.286 L 266.909 207.286 Z " fill-rule="evenodd" fill="rgb(254,254,254)"/><path d=" M 112.715 108.018 C 102.338 102.829 102.546 96.811 113.337 89.963 C 122.884 83.529 134.16 82.976 147.926 90.931 C 157.472 98.54 157.61 108.225 147.926 108.087 C 137.826 107.188 131.047 112.168 112.715 108.087 L 112.715 108.018 Z " fill-rule="evenodd" fill="rgb(255,204,41)"/><path d=" M 428.436 103.314 C 425.392 99.163 425.254 94.182 431.549 87.403 C 436.253 80.555 445.453 75.643 464.546 74.744 C 485.852 71.908 480.733 83.46 469.319 87.403 C 463.992 88.579 465.376 89.755 467.728 90.862 C 470.703 92.453 474.369 91.969 477.897 91.83 C 482.947 91.415 483.085 92.591 481.079 94.459 C 458.943 94.805 441.718 97.918 428.505 103.244 L 428.436 103.314 Z " fill-rule="evenodd" fill="rgb(255,204,41)"/><path d=" M 207.279 25.214 C 202.575 27.081 201.745 34.414 209.839 32.2 C 266.909 13.108 331.52 14.284 403.048 34.137 C 405.884 35.313 409.897 31.439 404.639 29.364 C 325.155 6.259 260.614 6.882 207.348 25.214 L 207.279 25.214 Z " fill-rule="evenodd" fill="rgb(255,204,41)"/><path d=" M 391.288 112.168 C 396.061 114.728 396.13 117.218 391.634 119.778 C 349.851 116.734 286.348 117.702 223.535 118.532 C 219.731 117.356 219.731 116.18 223.535 115.074 C 265.11 110.854 334.771 112.998 391.357 112.237 L 391.288 112.168 Z " fill-rule="evenodd" fill="rgb(255,204,41)"/><path d=" M 152.699 61.393 C 152.63 59.525 153.391 58.972 154.912 59.179 C 166.327 68.38 173.728 77.58 183.136 86.781 C 185.281 92.315 179.193 96.188 175.181 92.176 C 169.509 81.8 162.314 71.562 152.63 61.393 L 152.699 61.393 Z " fill-rule="evenodd" fill="rgb(255,204,41)"/><path d=" M 80.202 130.846 C 77.712 130.154 77.158 132.99 79.164 135.342 C 87.258 137.556 98.05 138.801 112.092 138.87 C 116.174 138.87 116.45 133.613 112.853 134.097 C 100.817 134.581 89.887 133.613 80.202 130.915 L 80.202 130.846 Z " fill-rule="evenodd" fill="rgb(255,204,41)"/><path d=" M 549.564 373.862 C 549.633 376.284 550.532 377.736 553.022 377.114 C 555.374 375.592 556.343 373.309 556.205 370.404 L 554.475 323.156 C 553.022 317.622 549.564 314.371 543.199 314.578 L 398.828 318.383 C 395.439 319.559 395.646 320.597 399.451 321.565 L 537.112 322.81 C 542.369 322.81 546.243 324.332 547.281 329.174 C 549.218 338.167 550.048 352.694 549.494 373.932 L 549.564 373.862 Z " fill-rule="evenodd" fill="rgb(255,204,41)"/><path d=" M 71.209 318.037 C 71.002 319.282 70.794 320.527 70.587 321.842 C 90.994 323.848 113.407 324.955 143.083 323.156 C 144.259 322.672 145.089 322.049 143.083 320.942 C 121.5 319.144 96.251 318.314 71.209 318.106 L 71.209 318.037 Z " fill-rule="evenodd" fill="rgb(255,204,41)"/><path d=" M 44.991 148.555 C 38.489 147.794 35.583 150.077 35.03 154.366 C 27.42 155.957 24.031 159.208 24.861 164.189 C 9.642 171.66 14.623 175.88 14.415 180.999 C 6.252 186.464 7.29 191.029 7.774 195.595 C 0.165 202.167 2.102 207.424 4.316 212.751 C -0.458 218.285 2.448 222.366 5.561 226.378 C -0.596 231.359 0.995 234.956 3.347 238.415 C -1.979 245.402 -0.665 250.037 5.284 253.011 C 3.624 258.545 2.517 263.872 8.466 266.639 C 6.322 274.594 8.259 278.607 14.208 278.676 C 13.17 280.82 13.447 282.342 15.799 282.826 C 15.522 286.769 17.113 289.675 21.54 291.058 C 20.226 293.687 20.572 295.624 24.723 296.108 C 24.308 299.567 25.76 302.057 31.087 302.126 C 31.502 304.617 28.942 308.422 37.105 307.522 C 37.105 309.39 36.967 311.396 39.941 311.327 C 39.457 313.541 40.011 314.993 43.123 314.786 C 42.155 319.628 46.375 321.081 51.355 322.049 C 54.192 322.879 56.82 321.911 59.242 319.766 C 63.461 307.661 69.411 301.642 75.152 294.794 C 75.014 292.442 74.46 290.367 71.347 289.744 C 67.958 288.914 64.983 287.807 64.983 284.694 C 64.983 282.135 63.6 281.097 60.833 281.512 C 56.544 281.097 56.475 278.883 56.059 276.739 C 57.097 275.148 57.927 273.557 53.223 273.903 C 49.626 273.626 47.689 272.519 49.419 269.475 C 50.249 266.847 49.834 264.84 46.859 264.08 C 43.954 262.904 42.432 260.967 44.023 257.439 C 45.406 255.087 44.853 253.08 42.432 251.42 C 41.187 250.244 40.356 248.93 42.086 246.647 C 44.645 242.912 43.331 241.113 40.841 239.66 C 38.004 238.415 37.451 236.962 39.25 235.302 C 41.671 232.328 42.363 229.491 39.25 226.932 C 37.451 223.888 37.036 220.637 39.872 216.763 C 40.979 215.449 41.671 213.788 41.117 211.367 C 39.457 207.77 40.08 205.003 43.054 203.135 C 46.098 201.89 48.312 200.161 44.991 195.526 C 43.815 193.312 43.262 191.098 47.205 188.885 C 51.84 188.124 51.355 185.91 50.041 183.489 C 49.903 180.584 51.079 178.439 55.091 178.093 C 59.726 177.263 60.971 173.458 61.732 169.239 C 62.908 166.61 64.084 163.981 65.26 161.422 C 55.852 156.718 50.179 152.567 44.991 148.555 Z  M 15.038 215.241 L 15.038 215.241 C 18.704 214.964 22.855 215.241 27.836 216.555 C 34.684 220.429 32.747 221.951 26.452 223.542 C 20.295 224.026 17.044 222.989 13.931 221.813 C 9.573 218.907 9.85 217.247 15.038 215.241 Z  M 49.557 305.585 L 49.557 305.585 C 52.186 302.749 55.437 299.913 59.657 296.938 C 66.09 294.171 65.122 296.523 60.902 302.057 C 56.405 306.9 53.638 308.629 50.94 310.22 C 46.721 311.673 46.375 310.566 49.626 305.516 L 49.557 305.585 Z  M 40.771 296.662 L 40.771 296.662 C 43.884 293.272 47.758 289.882 52.739 286.423 C 60.418 283.172 59.242 285.939 54.192 292.511 C 48.865 298.253 45.545 300.328 42.363 302.196 C 37.382 303.994 36.967 302.611 40.841 296.662 L 40.771 296.662 Z  M 31.571 288.706 L 31.571 288.706 C 34.684 285.317 38.558 281.927 43.539 278.468 C 51.217 275.217 50.041 277.984 44.991 284.556 C 39.665 290.297 36.344 292.373 33.162 294.24 C 28.181 296.039 27.766 294.655 31.64 288.706 L 31.571 288.706 Z  M 22.716 273.349 L 22.716 273.349 C 26.867 271.412 31.709 269.752 37.52 268.368 C 45.821 268.23 43.677 270.375 36.552 274.525 C 29.496 277.776 25.691 278.468 22.025 279.022 C 16.767 278.745 16.906 277.361 22.647 273.349 L 22.716 273.349 Z  M 16.836 259.652 L 16.836 259.652 C 21.195 258.269 26.175 257.162 32.124 256.608 C 40.356 257.508 37.935 259.306 30.395 262.627 C 22.993 264.979 19.119 265.186 15.453 265.256 C 10.265 264.356 10.541 262.973 16.836 259.721 L 16.836 259.652 Z  M 12.271 246.924 L 12.271 246.924 C 16.629 245.54 21.61 244.433 27.559 243.88 C 35.791 244.779 33.37 246.578 25.829 249.898 C 18.428 252.25 14.554 252.458 10.887 252.527 C 5.699 251.628 5.976 250.244 12.271 246.993 L 12.271 246.924 Z  M 13.862 231.013 L 13.862 231.013 C 17.736 230.598 22.163 230.737 27.213 231.636 C 33.854 234.818 31.502 236.271 24.584 237.931 C 17.943 238.623 14.692 237.792 11.579 236.893 C 7.428 234.472 7.982 233.019 13.793 231.013 L 13.862 231.013 Z  M 16.214 202.72 L 16.214 202.72 C 19.465 202.236 23.062 202.374 27.282 203.412 C 32.816 207.078 30.879 208.669 25.138 210.606 C 19.604 211.367 16.906 210.468 14.346 209.43 C 10.887 206.663 11.372 205.003 16.214 202.72 Z  M 21.056 187.64 L 21.056 187.64 C 23.962 187.778 27.075 188.746 30.464 190.753 C 34.269 195.872 32.194 197.255 26.729 198.085 C 21.748 197.809 19.673 196.218 17.736 194.557 C 15.453 190.891 16.283 189.092 21.125 187.64 L 21.056 187.64 Z  M 27.974 174.358 L 27.974 174.358 C 30.81 175.188 33.577 176.848 36.413 179.615 C 38.904 185.495 36.552 186.325 31.018 185.91 C 26.244 184.458 24.584 182.451 23.062 180.376 C 21.748 176.226 22.924 174.773 27.974 174.427 L 27.974 174.358 Z  M 38.143 162.459 L 38.143 162.459 C 40.979 163.29 43.746 164.95 46.582 167.717 C 49.073 173.597 46.721 174.427 41.187 174.012 C 36.413 172.559 34.753 170.553 33.231 168.478 C 31.917 164.327 33.093 162.875 38.143 162.529 L 38.143 162.459 Z " fill-rule="evenodd" fill="rgb(32,30,30)"/><path d=" M 309.452 203.412 C 314.71 203.55 315.955 206.456 315.955 210.191 C 315.955 213.927 313.05 216.97 309.452 216.97 C 305.855 216.97 303.849 213.996 302.95 210.191 C 302.051 206.386 304.195 203.273 309.452 203.412 Z " fill-rule="evenodd" fill="rgb(139,173,219)"/><path d=" M 39.319 179.477 C 41.602 183.489 41.602 185.426 40.495 186.394 C 42.432 187.57 44.507 187.986 46.79 186.74 C 48.45 184.527 47.412 182.659 45.06 180.93 C 43.954 179.062 41.74 179.2 39.25 179.546 L 39.319 179.477 Z " fill-rule="evenodd" fill="rgb(72,136,123)"/><path d=" M 51.771 169.239 C 54.814 169.239 57.235 170.899 57.235 172.974 C 57.235 175.05 54.814 176.71 51.771 176.71 C 48.727 176.71 49.211 174.911 49.211 172.905 C 49.211 170.83 48.796 169.308 51.771 169.308 L 51.771 169.239 Z " fill-rule="evenodd" fill="rgb(72,136,123)"/><path d=" M 38.489 191.652 C 40.841 191.652 42.778 193.935 42.778 196.702 C 42.778 199.469 40.841 201.752 38.489 201.752 C 36.137 201.752 36.483 199.33 36.483 196.563 C 36.483 193.796 36.137 191.652 38.489 191.652 Z " fill-rule="evenodd" fill="rgb(72,136,123)"/><path d=" M 36.898 208.738 C 38.558 208.738 38.558 210.122 38.558 212.336 C 38.558 214.549 37.174 216.348 35.514 216.348 C 33.854 216.348 34.061 214.411 34.061 212.197 C 34.061 209.984 35.168 208.738 36.898 208.738 Z " fill-rule="evenodd" fill="rgb(72,136,123)"/><path d=" M 33.439 230.252 C 34.2 227.831 35.099 228.108 36.621 228.592 C 38.143 229.076 38.765 231.428 38.004 233.849 C 37.244 236.271 36.068 235.51 34.546 235.095 C 33.024 234.61 32.678 232.743 33.439 230.252 Z " fill-rule="evenodd" fill="rgb(72,136,123)"/><path d=" M 36.69 240.905 C 38.143 240.283 38.835 241.182 39.872 242.566 C 40.979 243.949 40.633 245.609 39.18 246.232 C 37.728 246.855 36.967 245.54 35.929 244.088 C 34.822 242.704 35.237 241.459 36.69 240.836 L 36.69 240.905 Z " fill-rule="evenodd" fill="rgb(72,136,123)"/><path d=" M 38.973 253.011 C 40.149 252.942 41.325 252.527 42.293 254.118 C 43.262 255.778 42.501 258.615 41.394 258.684 C 40.218 258.753 39.595 257.3 38.627 255.709 C 37.659 254.049 37.866 253.08 39.042 253.011 L 38.973 253.011 Z " fill-rule="evenodd" fill="rgb(72,136,123)"/><path d=" M 44.23 265.463 C 45.406 265.394 46.651 264.91 47.689 266.639 C 48.727 268.368 47.897 271.274 46.721 271.343 C 45.545 271.412 46.651 270.029 45.683 268.368 C 44.645 266.639 43.054 265.532 44.23 265.463 Z " fill-rule="evenodd" fill="rgb(72,136,123)"/><path d=" M 50.94 275.563 C 51.978 275.217 53.016 274.456 54.399 275.77 C 55.714 277.085 55.783 279.921 54.745 280.267 C 53.707 280.613 54.399 279.091 53.016 277.776 C 51.701 276.462 49.903 275.839 51.01 275.494 L 50.94 275.563 Z " fill-rule="evenodd" fill="rgb(72,136,123)"/><path d=" M 55.852 283.034 C 57.097 282.55 58.135 281.858 60.694 282.273 C 63.254 282.757 64.983 284.487 63.669 284.971 C 62.424 285.455 58.757 284.763 56.198 284.279 C 53.638 283.795 54.538 283.449 55.852 282.965 L 55.852 283.034 Z " fill-rule="evenodd" fill="rgb(72,136,123)"/><path d=" M 63.323 290.782 C 64.707 290.09 65.744 289.121 68.442 289.744 C 71.209 290.367 72.938 292.788 71.624 293.479 C 70.241 294.171 70.794 295.555 68.027 294.932 C 65.26 294.31 61.939 291.404 63.323 290.712 L 63.323 290.782 Z " fill-rule="evenodd" fill="rgb(72,136,123)"/></g></svg>